<svg xmlns="http://www.w3.org/2000/svg" xmlns:xlink="http://www.w3.org/1999/xlink" width="32" height="32" viewBox="0 0 32 32">
    <defs>
        <path id="prefix__a" d="M30 12H20V2c0-1.105-.895-2-2-2h-4c-1.105 0-2 .895-2 2v10H2c-1.105 0-2 .895-2 2v4c0 1.105.895 2 2 2h10v10c0 1.105.895 2 2 2h4c1.105 0 2-.895 2-2V20h10c1.105 0 2-.895 2-2v-4c0-1.105-.895-2-2-2z"/>
    </defs>
    <g fill="none" fill-rule="evenodd">
        <mask id="prefix__b" fill="#fff">
            <use xlink:href="#prefix__a"/>
        </mask>
        <g fill="#379956" mask="url(#prefix__b)">
            <path d="M0 0H32V32H0z"/>
        </g>
    </g>
</svg>
