<svg xmlns="http://www.w3.org/2000/svg" xmlns:xlink="http://www.w3.org/1999/xlink" width="36" height="32" viewBox="0 0 36 32">
    <defs>
        <path id="prefix__a" d="M18.292 11.788c0 .15-.006.304-.017.454 3.57-.235 6.358-2.799 6.452-5.934.093-3.135-2.537-5.823-6.088-6.22-3.551-.399-6.87 1.623-7.68 4.678 4.11.318 7.333 3.34 7.333 7.022zm4.231.727c-1.353.78-2.93 1.212-4.55 1.245-.457 1.374-1.382 2.594-2.65 3.497 3.575.908 6.189 3.798 6.189 7.222v1.88h6.438v-7.52c0-2.931-2.213-5.51-5.427-6.324zm-7.511 5.64c-2.895 1.664-6.64 1.664-9.535 0C2.263 18.97.05 21.549.05 24.48v5.64C.05 31.16 1.01 32 2.196 32h18.242v-7.52c0-2.932-2.212-5.51-5.426-6.324zm-4.768-.256c3.852 0 6.975-2.736 6.975-6.11 0-3.375-3.123-6.111-6.975-6.111-3.852 0-6.975 2.736-6.975 6.11 0 3.375 3.123 6.11 6.975 6.11z"/>
    </defs>
    <g fill="none" fill-rule="evenodd" transform="translate(4)">
        <mask id="prefix__b" fill="#fff">
            <use xlink:href="#prefix__a"/>
        </mask>
        <g fill="#000" mask="url(#prefix__b)">
            <path d="M0 0H36V32H0z" transform="translate(-4)"/>
        </g>
    </g>
</svg>
