<svg xmlns="http://www.w3.org/2000/svg" xmlns:xlink="http://www.w3.org/1999/xlink" width="36" height="32" viewBox="0 0 36 32">
    <defs>
        <path id="prefix__a" d="M15.012 9.22c-.928.84-1.37 2.023-1.2 3.2.172 1.178.939 2.217 2.075 2.812v14.84c0 1.055.946 1.911 2.113 1.911s2.113-.856 2.113-1.911v-14.84c1.425-.742 2.245-2.164 2.103-3.646-.143-1.482-1.222-2.755-2.768-3.262-1.545-.508-3.276-.159-4.436.896zm-2.24-3.498c-.197-.18-.466-.28-.746-.28-.28 0-.55.1-.747.28-1.783 1.612-2.784 3.799-2.784 6.079s1.001 4.467 2.784 6.079c.414.362 1.073.357 1.48-.011.408-.369.414-.965.014-1.34-1.387-1.254-2.166-2.955-2.166-4.729 0-1.773.78-3.474 2.166-4.728.41-.374.41-.977-.001-1.35zm11.952 0c-.265-.248-.658-.348-1.027-.26-.37.087-.658.348-.755.682-.097.334.013.69.288.93 1.386 1.253 2.165 2.954 2.165 4.728 0 1.773-.779 3.474-2.165 4.728-.4.375-.395.972.013 1.34.408.369 1.066.374 1.48.011 1.783-1.612 2.784-3.798 2.784-6.078 0-2.28-1-4.467-2.783-6.08zM6.38 11.802c-.008-2.79 1.218-5.465 3.404-7.431.4-.375.394-.971-.013-1.34-.408-.368-1.067-.373-1.481-.011-2.576 2.328-4.022 5.487-4.022 8.782 0 3.294 1.446 6.453 4.022 8.781.265.249.658.349 1.027.261.37-.087.658-.348.755-.682.096-.334-.014-.69-.288-.93-2.186-1.966-3.412-4.641-3.404-7.43zM27.71 3.02c-.414-.362-1.073-.357-1.48.011-.408.369-.414.965-.014 1.34 2.18 1.97 3.403 4.643 3.403 7.43 0 2.788-1.224 5.46-3.403 7.431-.4.375-.394.971.013 1.34.408.369 1.067.374 1.481.011 2.576-2.328 4.022-5.487 4.022-8.781 0-3.295-1.446-6.454-4.022-8.782zM2.155 11.802C2.145 7.999 3.815 4.35 6.796 1.67c.275-.24.385-.595.288-.93-.097-.333-.385-.594-.755-.682-.37-.087-.762.013-1.027.261C1.932 3.363.037 7.494.037 11.803s1.894 8.44 5.265 11.484c.414.362 1.073.357 1.48-.012.408-.368.414-.964.014-1.34-2.981-2.68-4.653-6.33-4.641-10.133zM34.643 5.69c-.902-2.013-2.244-3.84-3.945-5.373-.414-.362-1.073-.357-1.48.011-.408.369-.414.965-.014 1.34 2.971 2.687 4.641 6.332 4.641 10.133 0 3.8-1.67 7.446-4.641 10.133-.4.375-.394.971.013 1.34.408.368 1.067.373 1.481.01 5.1-4.615 6.654-11.544 3.945-17.594z"/>
    </defs>
    <g fill="none" fill-rule="evenodd">
        <mask id="prefix__b" fill="#fff">
            <use xlink:href="#prefix__a"/>
        </mask>
        <g fill="#000" mask="url(#prefix__b)">
            <path d="M0 0H36V32H0z"/>
        </g>
    </g>
</svg>
