<svg xmlns="http://www.w3.org/2000/svg" xmlns:xlink="http://www.w3.org/1999/xlink" width="36" height="36" viewBox="0 0 36 36">
    <defs>
        <path id="prefix__a" d="M31.765.05H3.176v24.144c0 .297-.237.537-.529.537-.292 0-.53-.24-.53-.537V4.772H0V24.73c0 1.778 1.422 3.219 3.176 3.219h29.648c1.754 0 3.176-1.441 3.176-3.22V4.343C36 1.972 34.104.05 31.765.05zm-.043 23.608H8.471v1.073H7.41v-1.073H6.354v-1.073h1.059V8.635H8.47v13.95h23.251v1.073zm0-2.146H9.53l3.177-4.293 2.118 2.146 4.235-4.292 2.117 2.146 10.546-8.584v12.877zm-.487-15.024H7.941c-.877 0-1.588-.72-1.588-1.61 0-.888.711-1.609 1.588-1.609h23.294c.877 0 1.589.72 1.589 1.61 0 .889-.712 1.61-1.589 1.61z"/>
    </defs>
    <g fill="none" fill-rule="evenodd" transform="translate(0 4)">
        <mask id="prefix__b" fill="#fff">
            <use xlink:href="#prefix__a"/>
        </mask>
        <g fill="#000" mask="url(#prefix__b)">
            <path d="M0 0H36V36H0z" transform="translate(0 -4)"/>
        </g>
    </g>
</svg>
